<?xml version="1.0" encoding="iso-8859-1"?>
<!-- Generator: Adobe Illustrator 18.0.0, SVG Export Plug-In . SVG Version: 6.00 Build 0)  -->
<!DOCTYPE svg PUBLIC "-//W3C//DTD SVG 1.1//EN" "http://www.w3.org/Graphics/SVG/1.1/DTD/svg11.dtd">
<svg version="1.1" id="Capa_1" xmlns="http://www.w3.org/2000/svg" xmlns:xlink="http://www.w3.org/1999/xlink" x="0px" y="0px"
	 viewBox="0 0 57 57" style="enable-background:new 0 0 57 57;" xml:space="preserve">
<g>
	<path style="fill:#EF771D;" d="M7.626,43.243c-3.969,2.999-2.999,3.325,0,7.294C11.595,47.538,10.624,47.212,7.626,43.243z"/>
	<path style="fill:#F9DA49;" d="M19.626,43.243c-3.969,2.999-2.999,3.325,0,7.294C23.595,47.538,22.624,47.212,19.626,43.243z"/>
	<path style="fill:#EF771D;" d="M31.374,43.243c-3.969,2.999-2.999,3.325,0,7.294C35.344,47.538,34.373,47.212,31.374,43.243z"/>
	<path style="fill:#D2D5D7;" d="M31.407,39.243H7.593c-2.857,0-5.172-2.329-5.172-5.201v-0.462c0-0.875-0.236-1.733-0.684-2.482
		l-1.631-2.733c-0.294-0.493,0.059-1.121,0.631-1.121h37.526c0.572,0,0.925,0.627,0.631,1.121l-1.631,2.734
		c-0.447,0.75-0.684,1.608-0.684,2.482v0.462C36.579,36.914,34.264,39.243,31.407,39.243z"/>
	<path style="fill:#FFFFFF;" d="M19,37.243H6c-0.552,0-1-0.447-1-1s0.448-1,1-1h13c0.552,0,1,0.447,1,1S19.552,37.243,19,37.243z"/>
	<path style="fill:#FFFFFF;" d="M15.286,34.243H6c-0.552,0-1-0.447-1-1s0.448-1,1-1h9.286c0.552,0,1,0.447,1,1
		S15.838,34.243,15.286,34.243z"/>
	<path style="fill:#E6E6E6;" d="M55,29.243H38.369l-1.106,1.854c-0.39,0.653-0.608,1.389-0.661,2.146H55c1.1,0,2-0.9,2-2
		C57,30.143,56.1,29.243,55,29.243z"/>
	<path style="fill:#E6E6E6;" d="M37,53.243H3c-0.552,0-1-0.447-1-1s0.448-1,1-1h34c0.552,0,1,0.447,1,1S37.552,53.243,37,53.243z"/>
	<path style="fill:#E6E6E6;" d="M11,22.728c-0.256,0-0.512-0.098-0.707-0.293c-1.323-1.322-2.052-3.081-2.052-4.949
		c0-1.869,0.729-3.628,2.052-4.95c0.945-0.945,1.466-2.201,1.466-3.536c0-1.334-0.521-2.59-1.466-3.535
		c-0.391-0.391-0.391-1.023,0-1.414s1.023-0.391,1.414,0C13.03,5.373,13.759,7.131,13.759,9c0,1.869-0.729,3.628-2.052,4.95
		c-0.945,0.945-1.466,2.201-1.466,3.536c0,1.334,0.521,2.59,1.466,3.535c0.391,0.391,0.391,1.023,0,1.414
		C11.512,22.63,11.256,22.728,11,22.728z"/>
	<path style="fill:#E6E6E6;" d="M23.241,22.728c-0.256,0-0.512-0.098-0.707-0.293c-1.323-1.322-2.052-3.081-2.052-4.949
		c0-1.869,0.729-3.628,2.052-4.95C23.479,11.59,24,10.334,24,9c0-1.334-0.521-2.59-1.466-3.535c-0.391-0.391-0.391-1.023,0-1.414
		s1.023-0.391,1.414,0C25.271,5.373,26,7.131,26,9c0,1.869-0.729,3.628-2.052,4.95c-0.945,0.945-1.466,2.201-1.466,3.536
		c0,1.334,0.521,2.59,1.466,3.535c0.391,0.391,0.391,1.023,0,1.414C23.753,22.63,23.497,22.728,23.241,22.728z"/>
</g>
<g>
</g>
<g>
</g>
<g>
</g>
<g>
</g>
<g>
</g>
<g>
</g>
<g>
</g>
<g>
</g>
<g>
</g>
<g>
</g>
<g>
</g>
<g>
</g>
<g>
</g>
<g>
</g>
<g>
</g>
</svg>
