<?xml version="1.0" encoding="iso-8859-1"?>
<!-- Generator: Adobe Illustrator 19.1.0, SVG Export Plug-In . SVG Version: 6.00 Build 0)  -->
<svg version="1.1" id="Capa_1" xmlns="http://www.w3.org/2000/svg" xmlns:xlink="http://www.w3.org/1999/xlink" x="0px" y="0px"
	 viewBox="0 0 482.851 482.851" style="enable-background:new 0 0 482.851 482.851;" xml:space="preserve">
<g>
	<path style="fill:#333333;" d="M290.211,213.711c-0.49-11.28,12.4-25.07,26.19-21.01c-0.54,10.71-8.17,19.75-18.64,22.08l-7.19,1.6
		C290.371,215.581,290.251,214.691,290.211,213.711z"/>
	<path style="fill:#333333;" d="M166.461,192.701c13.79-4.06,26.68,9.73,26.19,21.01c-0.04,0.98-0.16,1.87-0.36,2.67l-7.19-1.6
		C174.631,212.451,167.001,203.411,166.461,192.701z"/>
	<path style="fill:#808080;" d="M192.291,216.381c0.2-0.8,0.32-1.69,0.36-2.67c0.49-11.28-12.4-25.07-26.19-21.01
		c0.54,10.71,8.17,19.75,18.64,22.08L192.291,216.381z M388.831,245.491c0.77,2.1,28,77.05-1.31,134.4
		c-3.88-25.85-15.52-27.15-15.52-27.15c-0.71,29.62-8.86,48.04-20.94,60.54l-0.01-0.01l-72.8-28.53l-36.82,63.78l-36.82-63.78
		l-72.8,28.53l-0.01,0.01c-12.08-12.5-20.23-30.92-20.94-60.54c0,0-11.64,1.3-15.52,27.15c-29.31-57.35-2.08-132.3-1.31-134.4
		c-0.81,1.64-21.03,42.43-38.77,33.56c8.08-14.91,9.29-41.16,9.23-66.57l128.79-59.56l48.15,83.41l48.15-83.41l128.79,59.56
		c-0.06,25.41,1.15,51.66,9.22,66.57C409.861,287.921,389.641,247.131,388.831,245.491z M275.731,349.911
		c-1.93,0.37-3.91,0.56-5.92,0.56c-11.15,0-21.48-5.86-27.2-15.44l-1.18-1.97c10.27,0,19.37-6.61,22.55-16.38l2.44-7.52
		c0.33-1.01,0.49-2.03,0.49-3.04c0-3.97-2.42-7.68-6.31-9.18c-6.17-2.37-12.67-3.56-19.17-3.56s-13,1.19-19.17,3.56
		c-4.88,1.88-7.44,7.25-5.82,12.22l2.44,7.52c1.59,4.89,4.66,8.98,8.62,11.85c3.95,2.88,8.8,4.53,13.93,4.53l-1.18,1.97
		c-5.72,9.58-16.05,15.44-27.2,15.44c-2.01,0-3.99-0.19-5.92-0.56c4.92,10.68,18.42,18.35,34.3,18.35
		S270.811,360.591,275.731,349.911z M290.571,216.381l7.19-1.6c10.47-2.33,18.1-11.37,18.64-22.08
		c-13.79-4.06-26.68,9.73-26.19,21.01C290.251,214.691,290.371,215.581,290.571,216.381z"/>
	<path style="fill:#CCCCCC;" d="M413.681,182.521c3.09,9.53,4.72,19.63,4.69,29.96l-128.79-59.56l-48.15,83.41l-48.15-83.41
		l-128.79,59.56c-0.03-10.33,1.6-20.43,4.69-29.96h0.01l135.42-73.61l36.82,63.78l36.82-63.78l135.42,73.61H413.681z"/>
	<path style="fill:#808080;" d="M326.751,44.521c13.01-9.99,27.47-21.91,37.7-32.64c9.16-9.61,25.14-7.06,31,4.86
		c14.6,29.71,16.78,87.02,5.25,139.85c0.01,0,0,0.01,0,0.01c5.6,7.91,9.99,16.65,12.98,25.92h-0.01l-135.42-73.61l-36.82,63.78
		l-36.82-63.78l-135.42,73.61h-0.01c2.99-9.27,7.38-18.01,12.98-25.92c0,0-0.01-0.01,0-0.01c-11.53-52.83-9.36-110.14,5.25-139.85
		c5.86-11.92,21.83-14.47,31-4.86c10.23,10.73,24.69,22.65,37.7,32.64c20.03-5.03,40.38-8.27,60.83-9.7l24.49,42.42l24.49-42.42
		C286.371,36.251,306.721,39.491,326.751,44.521z"/>
	<path style="fill:#CCCCCC;" d="M351.051,413.271l0.01,0.01c-29.95,30.94-84.09,25.53-109.63,63.57
		c-25.54-38.04-79.68-32.63-109.63-63.57l0.01-0.01l72.8-28.53l36.82,63.78l36.82-63.78L351.051,413.271z"/>
	<path style="fill:#666666;" d="M269.811,350.471c2.01,0,3.99-0.19,5.92-0.56c-4.92,10.68-18.42,18.35-34.3,18.35
		s-29.38-7.67-34.3-18.35c1.93,0.37,3.91,0.56,5.92,0.56c11.15,0,21.48-5.86,27.2-15.44l1.18-1.97l1.18,1.97
		C248.331,344.611,258.661,350.471,269.811,350.471z"/>
	<path style="fill:#333333;" d="M266.911,306.121c0,1.01-0.16,2.03-0.49,3.04l-2.44,7.52c-3.18,9.77-12.28,16.38-22.55,16.38
		c-5.13,0-9.98-1.65-13.93-4.53c-3.96-2.87-7.03-6.96-8.62-11.85l-2.44-7.52c-1.62-4.97,0.94-10.34,5.82-12.22
		c6.17-2.37,12.67-3.56,19.17-3.56s13,1.19,19.17,3.56C264.491,298.441,266.911,302.151,266.911,306.121z"/>
	<path style="fill:#CCCCCC;" d="M265.921,34.821l-24.49,42.42l-24.49-42.42C233.251,33.671,249.611,33.671,265.921,34.821z"/>
	<path style="fill:none;stroke:#333333;stroke-width:12;stroke-linecap:round;stroke-linejoin:round;stroke-miterlimit:10;" d="
		M187.131,67.031c0,0-14.32-9.68-31.02-22.51c-13.01-9.99-27.47-21.91-37.7-32.64c-9.17-9.61-25.14-7.06-31,4.86
		c-14.61,29.71-16.78,87.02-5.25,139.85"/>
	<path style="fill:none;stroke:#333333;stroke-width:8;stroke-linecap:round;stroke-linejoin:round;stroke-miterlimit:10;" d="
		M99.221,59.281c0,0,40.19,12.15,40.78,54.56"/>
	<path style="fill:none;stroke:#333333;stroke-width:8;stroke-linecap:round;stroke-linejoin:round;stroke-miterlimit:10;" d="
		M177.141,224.051c0,0,12.81,2.47,15.15-7.67c0.2-0.8,0.32-1.69,0.36-2.67c0.49-11.28-12.4-25.07-26.19-21.01
		c-2.37,0.69-4.77,1.92-7.13,3.77"/>
	<path style="fill:none;stroke:#333333;stroke-width:8;stroke-linecap:round;stroke-linejoin:round;stroke-miterlimit:10;" d="
		M166.461,192.701c0.54,10.71,8.17,19.75,18.64,22.08l7.19,1.6h0.01"/>
	<path style="fill:none;stroke:#333333;stroke-width:8;stroke-linecap:round;stroke-linejoin:round;stroke-miterlimit:10;" d="
		M218.881,316.681l-2.44-7.52c-1.62-4.97,0.94-10.34,5.82-12.22c6.17-2.37,12.67-3.56,19.17-3.56s13,1.19,19.17,3.56
		c3.89,1.5,6.31,5.21,6.31,9.18c0,1.01-0.16,2.03-0.49,3.04l-2.44,7.52c-3.18,9.77-12.28,16.38-22.55,16.38
		c-5.13,0-9.98-1.65-13.93-4.53C223.541,325.661,220.471,321.571,218.881,316.681z"/>
	<path style="fill:none;stroke:#333333;stroke-width:12;stroke-linecap:round;stroke-linejoin:round;stroke-miterlimit:10;" d="
		M295.731,67.031c0,0,14.32-9.68,31.02-22.51c13.01-9.99,27.47-21.91,37.7-32.64c9.16-9.61,25.14-7.06,31,4.86
		c14.6,29.71,16.78,87.02,5.25,139.85"/>
	<path style="fill:none;stroke:#333333;stroke-width:8;stroke-linecap:round;stroke-linejoin:round;stroke-miterlimit:10;" d="
		M383.641,59.281c0,0-40.19,12.15-40.78,54.56"/>
	<path style="fill:none;stroke:#333333;stroke-width:8;stroke-linecap:round;stroke-linejoin:round;stroke-miterlimit:10;" d="
		M305.721,224.051c0,0-12.81,2.47-15.15-7.67c-0.2-0.8-0.32-1.69-0.36-2.67c-0.49-11.28,12.4-25.07,26.19-21.01
		c2.37,0.69,4.77,1.92,7.13,3.77"/>
	<path style="fill:none;stroke:#333333;stroke-width:8;stroke-linecap:round;stroke-linejoin:round;stroke-miterlimit:10;" d="
		M316.401,192.701c-0.54,10.71-8.17,19.75-18.64,22.08l-7.19,1.6h-0.01"/>
	<path style="fill:none;stroke:#333333;stroke-width:8;stroke-linecap:round;stroke-linejoin:round;stroke-miterlimit:10;" d="
		M241.431,333.061l-1.18,1.97c-5.72,9.58-16.05,15.44-27.2,15.44c-2.01,0-3.99-0.19-5.92-0.56c-4.1-0.78-7.96-2.35-11.4-4.59
		c-5.05-3.3-9.15-8.03-11.68-13.79l-17.4-39.61c-5.39-13.46-24.66-13.04-29.36,0.68c-4.37,12.73-5.26,23.97-5.26,23.97
		s-25.05-50.44,18.9-94.4"/>
	<path style="fill:none;stroke:#333333;stroke-width:8;stroke-linecap:round;stroke-linejoin:round;stroke-miterlimit:10;" d="
		M241.431,333.061l1.18,1.97c5.72,9.58,16.05,15.44,27.2,15.44c2.01,0,3.99-0.19,5.92-0.56c4.1-0.78,7.96-2.35,11.4-4.59
		c5.05-3.3,9.15-8.03,11.68-13.79l17.4-39.61c5.39-13.46,24.66-13.04,29.36,0.68c4.37,12.73,5.26,23.97,5.26,23.97
		s25.05-50.44-18.9-94.4"/>
	<path style="fill:none;stroke:#333333;stroke-width:8;stroke-linecap:round;stroke-linejoin:round;stroke-miterlimit:10;" d="
		M207.121,349.901l0.01,0.01c4.92,10.68,18.42,18.35,34.3,18.35s29.38-7.67,34.3-18.35l0.01-0.01"/>
	<path style="fill:#666666;" d="M241.43,272.141c-1.429,0-2.75-0.762-3.464-2l-36.82-63.78c-1.104-1.913-0.449-4.36,1.464-5.464
		c1.915-1.104,4.36-0.448,5.464,1.464l33.355,57.779l33.356-57.779c1.105-1.913,3.551-2.569,5.464-1.464
		c1.913,1.104,2.568,3.551,1.464,5.464l-36.82,63.78C244.18,271.379,242.859,272.141,241.43,272.141z"/>
	<path style="fill:#666666;" d="M241.43,452.521c-1.429,0-2.75-0.762-3.464-2l-35.1-60.8l-69.596,27.274
		c-2.059,0.807-4.378-0.208-5.184-2.265c-0.806-2.057,0.208-4.378,2.265-5.184l72.8-28.53c1.845-0.722,3.935,0.011,4.924,1.724
		l33.355,57.779l33.356-57.779c0.989-1.713,3.081-2.446,4.924-1.724l72.8,28.53c2.057,0.806,3.07,3.127,2.265,5.184
		c-0.806,2.057-3.127,3.072-5.185,2.265l-69.596-27.274l-35.101,60.8C244.18,451.759,242.859,452.521,241.43,452.521z"/>
	<path style="fill:#333333;" d="M241.43,412.411L241.43,412.411c-1.429,0-2.749-0.762-3.464-2l-16.62-28.78
		c-1.105-1.913-0.45-4.359,1.463-5.464c1.914-1.104,4.36-0.45,5.464,1.464l13.156,22.782l13.156-22.782
		c1.106-1.913,3.551-2.568,5.464-1.464c1.913,1.105,2.568,3.551,1.464,5.464l-16.62,28.78
		C244.179,411.649,242.859,412.411,241.43,412.411z"/>
	<path style="fill:#666666;" d="M241.43,240.331L241.43,240.331c-1.429,0-2.75-0.762-3.464-2l-46.323-80.245L66.17,216.112
		c-2.005,0.927-4.382,0.054-5.31-1.952c-0.927-2.005-0.054-4.382,1.951-5.31l128.79-59.56c1.88-0.869,4.109-0.161,5.143,1.631
		l44.686,77.409l44.686-77.409c1.034-1.792,3.266-2.499,5.143-1.631l128.79,59.56c2.006,0.927,2.879,3.305,1.952,5.31
		c-0.927,2.004-3.305,2.88-5.31,1.952l-125.474-58.026l-46.324,80.245C244.18,239.569,242.86,240.331,241.43,240.331z"/>
	<path style="fill:#666666;" d="M241.43,208.511c-1.429,0-2.75-0.762-3.464-2l-36.82-63.78c-1.104-1.913-0.449-4.36,1.464-5.464
		c1.915-1.105,4.36-0.448,5.464,1.464l33.355,57.779l33.356-57.779c1.105-1.913,3.551-2.569,5.464-1.464
		c1.913,1.105,2.568,3.551,1.464,5.464l-36.82,63.78C244.18,207.749,242.859,208.511,241.43,208.511z"/>
	<path style="fill:#666666;" d="M413.667,186.522c-0.646,0-1.3-0.156-1.906-0.486l-131.995-71.748l-34.871,60.404
		c-0.714,1.238-2.035,2-3.464,2c-1.429,0-2.75-0.762-3.464-2l-34.871-60.404L71.101,186.035c-1.94,1.055-4.37,0.337-5.424-1.604
		c-1.055-1.941-0.337-4.37,1.604-5.425l135.42-73.61c1.904-1.035,4.29-0.364,5.375,1.515l33.355,57.779l33.356-57.779
		c1.085-1.879,3.469-2.549,5.374-1.515l135.42,73.61c1.941,1.055,2.659,3.484,1.604,5.425
		C416.46,185.765,415.086,186.522,413.667,186.522z"/>
	<path style="fill:#666666;" d="M241.43,144.871L241.43,144.871c-1.429,0-2.75-0.763-3.464-2l-39.89-69.09
		c-1.105-1.913-0.449-4.359,1.464-5.464c1.914-1.105,4.36-0.449,5.464,1.464l36.426,63.09l36.427-63.09
		c1.103-1.913,3.551-2.568,5.464-1.464c1.913,1.105,2.568,3.551,1.464,5.464l-39.891,69.09
		C244.18,144.109,242.859,144.871,241.43,144.871z"/>
	<path style="fill:#666666;" d="M241.43,113.051c-1.429,0-2.75-0.762-3.464-2l-28.74-49.78c-1.105-1.913-0.449-4.36,1.464-5.464
		c1.914-1.105,4.359-0.448,5.464,1.464l25.275,43.78l25.276-43.78c1.104-1.913,3.551-2.568,5.464-1.464
		c1.913,1.105,2.568,3.551,1.464,5.464l-28.74,49.78C244.18,112.289,242.859,113.051,241.43,113.051z"/>
	<path style="fill:#666666;" d="M241.43,81.241c-1.429,0-2.75-0.763-3.464-2l-24.49-42.42c-1.105-1.913-0.449-4.359,1.464-5.464
		c1.914-1.105,4.359-0.449,5.464,1.464l21.025,36.42l21.026-36.42c1.103-1.913,3.551-2.569,5.464-1.464
		c1.913,1.105,2.568,3.551,1.464,5.464l-24.49,42.42C244.18,80.479,242.859,81.241,241.43,81.241z"/>
	<path style="fill:none;stroke:#333333;stroke-width:12;stroke-linecap:round;stroke-linejoin:round;stroke-miterlimit:10;" d="
		M322.881,101.941c0,0,8,5.02,19.98,11.9c6.92,3.96,15.16,8.55,23.96,13.14c13.75,7.17,25.26,17.4,33.88,29.61c0.01,0,0,0.01,0,0.01
		c5.6,7.91,9.99,16.65,12.98,25.92c3.09,9.53,4.72,19.63,4.69,29.96c-0.06,25.41,1.15,51.66,9.22,66.57
		c-17.73,8.87-37.95-31.92-38.76-33.56l-0.02-0.05c0,0,0.01,0.02,0.02,0.05c0.77,2.1,28,77.05-1.31,134.4
		c-3.88-25.85-15.52-27.15-15.52-27.15c-0.71,29.62-8.86,48.04-20.94,60.54c-29.95,30.94-84.09,25.53-109.63,63.57
		c-25.54-38.04-79.68-32.63-109.63-63.57c-12.08-12.5-20.23-30.92-20.94-60.54c0,0-11.64,1.3-15.52,27.15
		c-29.31-57.35-2.08-132.3-1.31-134.4c0-0.01,0-0.02,0.01-0.02c0,0,0,0,0-0.01c0.01-0.01,0.01-0.02,0.01-0.02l-0.02,0.05
		c-0.81,1.64-21.03,42.43-38.77,33.56c8.08-14.91,9.29-41.16,9.23-66.57c-0.03-10.33,1.6-20.43,4.69-29.96
		c2.99-9.27,7.38-18.01,12.98-25.92c0,0-0.01-0.01,0-0.01c8.62-12.21,20.13-22.44,33.88-29.61c8.8-4.59,17.04-9.18,23.96-13.14
		c11.98-6.88,19.98-11.9,19.98-11.9"/>
	<path style="fill:none;stroke:#333333;stroke-width:12;stroke-linecap:round;stroke-linejoin:round;stroke-miterlimit:10;" d="
		M326.751,44.521c-20.03-5.03-40.38-8.27-60.83-9.7c-16.31-1.15-32.67-1.15-48.98,0c-20.45,1.43-40.8,4.67-60.83,9.7"/>
</g>
<g>
</g>
<g>
</g>
<g>
</g>
<g>
</g>
<g>
</g>
<g>
</g>
<g>
</g>
<g>
</g>
<g>
</g>
<g>
</g>
<g>
</g>
<g>
</g>
<g>
</g>
<g>
</g>
<g>
</g>
</svg>
